<svg xmlns="http://www.w3.org/2000/svg" width="10px" height="6px">
  <path fill="white" d="M0.0,0.0 C0.666,0.0 1.333,0.0 1.999,0.0 C1.999,0.666 1.999,1.333 1.999,1.999 C1.333,1.999 0.666,1.999 0.0,1.999 C0.0,1.333 0.0,0.666 0.0,0.0 ZM8.0,0.0 C8.666,0.0 9.333,0.0 10.0,0.0 C10.0,0.666 10.0,1.333 10.0,1.999 C9.333,1.999 8.666,1.999 8.0,1.999 C8.0,1.333 8.0,0.666 8.0,0.0 ZM1.999,1.999 C2.666,1.999 3.333,1.999 3.999,1.999 C3.999,2.666 3.999,3.333 3.999,4.0 C3.333,4.0 2.666,4.0 1.999,4.0 C1.999,3.333 1.999,2.666 1.999,1.999 ZM6.0,1.999 C6.666,1.999 7.333,1.999 8.0,1.999 C8.0,2.666 8.0,3.333 8.0,4.0 C7.333,4.0 6.666,4.0 6.0,4.0 C6.0,3.333 6.0,2.666 6.0,1.999 ZM3.999,4.0 C4.666,4.0 5.333,4.0 6.0,4.0 C6.0,4.666 6.0,5.333 6.0,6.0 C5.333,6.0 4.666,6.0 3.999,6.0 C3.999,5.333 3.999,4.666 3.999,4.0 Z"/>
</svg>